<?xml version="1.0" encoding="utf-8"?>
<!-- Generator: Adobe Illustrator 19.2.1, SVG Export Plug-In . SVG Version: 6.00 Build 0)  -->
<svg version="1.1" id="Layer_1" xmlns="http://www.w3.org/2000/svg" xmlns:xlink="http://www.w3.org/1999/xlink" x="0px" y="0px"
	 viewBox="0 0 494.3 424.4" style="enable-background:new 0 0 494.3 424.4;" xml:space="preserve">
<style type="text/css">
	.st0{fill:url(#SVGID_1_);}
	.st1{fill:url(#SVGID_2_);}
	.st2{fill:url(#SVGID_3_);}
	.st3{fill:url(#SVGID_4_);}
	.st4{fill:url(#SVGID_5_);}
	.st5{fill:url(#SVGID_6_);}
	.st6{fill:#FFAA2D;}
	.st7{fill:url(#SVGID_7_);}
	.st8{fill:url(#SVGID_8_);}
	.st9{fill:url(#SVGID_9_);}
	.st10{fill:url(#SVGID_10_);}
	.st11{fill:url(#SVGID_11_);}
	.st12{fill:url(#SVGID_12_);}
	.st13{fill:url(#SVGID_13_);}
	.st14{fill:url(#SVGID_14_);}
	.st15{fill:url(#SVGID_15_);}
	.st16{fill:url(#SVGID_16_);}
	.st17{fill:url(#SVGID_17_);}
	.st18{fill:url(#SVGID_18_);}
	.st19{fill:url(#SVGID_19_);}
	.st20{fill:url(#SVGID_20_);}
	.st21{fill:url(#SVGID_21_);}
	.st22{fill:#D18726;}
	.st23{fill:#FFFFFF;}
	.st24{fill:url(#SVGID_22_);}
</style>
<g>
	<linearGradient id="SVGID_1_" gradientUnits="userSpaceOnUse" x1="411.0877" y1="296.4191" x2="471.7086" y2="296.4191">
		<stop  offset="0" style="stop-color:#B5A59A"/>
		<stop  offset="1" style="stop-color:#D7C4B7"/>
	</linearGradient>
	<path class="st0" d="M411.1,292.1c0,0,12.6-1,15.3,11.9c2.7,12.9,3.2,32.3,15.5,29.9c12.4-2.4,13.8-15.5,22.3-24.8
		c8.5-9.2,7.8-20.4,7-50.3C428.6,279.2,411.1,292.1,411.1,292.1z"/>
	<linearGradient id="SVGID_2_" gradientUnits="userSpaceOnUse" x1="363.1561" y1="322.8944" x2="402.3925" y2="322.8944">
		<stop  offset="0" style="stop-color:#D48612"/>
		<stop  offset="5.061811e-02" style="stop-color:#D58A18"/>
		<stop  offset="0.4749" style="stop-color:#DEA943"/>
		<stop  offset="0.8055" style="stop-color:#E4BD5E"/>
		<stop  offset="1" style="stop-color:#E6C468"/>
	</linearGradient>
	<path class="st1" d="M402.4,301.7c0,0-3.3,13.4-5.2,22.3c-2,8.9-2.6,15.3-7.8,17.6c-5.2,2.3-11.3,4.9-14.8-1.2
		c-3.6-6.1-11.4-21.7-11.4-21.7L402.4,301.7z"/>
	<linearGradient id="SVGID_3_" gradientUnits="userSpaceOnUse" x1="0" y1="287.8174" x2="494.2649" y2="287.8174">
		<stop  offset="0" style="stop-color:#FFAA2D"/>
		<stop  offset="0.2442" style="stop-color:#FFAD31"/>
		<stop  offset="0.4805" style="stop-color:#FFB53D"/>
		<stop  offset="0.7136" style="stop-color:#FFC250"/>
		<stop  offset="0.9435" style="stop-color:#FFD56B"/>
		<stop  offset="1" style="stop-color:#FFDA73"/>
	</linearGradient>
	<path class="st2" d="M61,261.2c0,0-13.7,15.3-35,32.5c-21.3,17.2-36.4,42.9-17.1,70.1c19.3,27.2,105.6,74.1,153.2,57
		c47.6-17.1,65.5-28.3,121-54.8c58-27.7,110.3-57,161.9-85.7c32-17.7,62.2-26,43.5-74c-16.1-41.5-46.7-56.1-70.6-54.9
		C393.9,152.5,61,261.2,61,261.2z"/>
	<linearGradient id="SVGID_4_" gradientUnits="userSpaceOnUse" x1="142.2393" y1="166.6199" x2="274.317" y2="298.6976">
		<stop  offset="0" style="stop-color:#FFDA73"/>
		<stop  offset="0.262" style="stop-color:#F2C637"/>
		<stop  offset="0.5649" style="stop-color:#F2C637"/>
		<stop  offset="1" style="stop-color:#FFAA2D"/>
	</linearGradient>
	<path class="st3" d="M61,255.2c0,0-13.7,15.3-35,32.5c-21.3,17.2-36.4,42.9-17.1,70.1c19.3,27.2,105.6,74.1,153.2,57
		c47.6-17.1,65.5-28.3,121-54.8c58-27.7,110.3-57,161.9-85.7c32-17.8,62.2-26,43.5-74c-16.1-41.5-46.7-56.1-70.6-54.9
		C393.9,146.6,61,255.2,61,255.2z"/>
	<linearGradient id="SVGID_5_" gradientUnits="userSpaceOnUse" x1="427.0338" y1="4.7204" x2="138.2767" y2="337.5059">
		<stop  offset="0" style="stop-color:#FFDA73"/>
		<stop  offset="0.1719" style="stop-color:#FFD86E"/>
		<stop  offset="0.3788" style="stop-color:#FFD25F"/>
		<stop  offset="0.6037" style="stop-color:#FFC747"/>
		<stop  offset="0.8399" style="stop-color:#FFB925"/>
		<stop  offset="1" style="stop-color:#FFAD0A"/>
	</linearGradient>
	<path class="st4" d="M302.6,331.3c52-15.9,78.3-31.7,124.3-58.9c46-27.2,59.6-29.1,57-49.9c-2.6-20.7-16.8-144.4-94.5-186.5
		C311.7-6.1,196.4-22.2,132.3,49c-64.1,71.2-71.2,109.4-79.6,209.8c-0.6,7.1,0.6,25.2,18.1,30.4c17.5,5.2,52.4,18.1,75.1,30.4
		c22.7,12.3,34.3,24.6,79,22C269.6,339,279.3,338.4,302.6,331.3z"/>
	<linearGradient id="SVGID_6_" gradientUnits="userSpaceOnUse" x1="63.8137" y1="274.7705" x2="289.1202" y2="-1.036">
		<stop  offset="0" style="stop-color:#FFAA2D"/>
		<stop  offset="0.4904" style="stop-color:#FFD03A"/>
		<stop  offset="0.747" style="stop-color:#FFD03C"/>
		<stop  offset="0.8394" style="stop-color:#FFD243"/>
		<stop  offset="0.9053" style="stop-color:#FFD44E"/>
		<stop  offset="0.9581" style="stop-color:#FFD75F"/>
		<stop  offset="1" style="stop-color:#FFDA73"/>
	</linearGradient>
	<path class="st5" d="M364.5,31.5l5.7-5C331.3,8.9,285.7-1.9,242.6,0.3c-21.6,6.9-42.9,15.8-62.3,27.4c-9.5,5.7-21.9,12.1-29.1,20.8
		c-2.9,3.6-4.4,6.6-7.9,9.7c-4.3,3.7-8.6,7.1-12.3,11.5c-5.9,7-13.8,13.1-19.6,20c-10,12.1-20.7,27-23.9,42.7
		c-3.6,17.3,9.3,31,23.9,38.5c41.9,21.7,54.4-44.8,109.7-95.8C276.6,24.2,364.5,31.5,364.5,31.5z"/>
	<path class="st6" d="M26.8,291.1c29.5-25.2,32.9-28.6,32.9-28.6l-3.3-2.5c-5.7,5.8-16.4,16.3-30.4,27.6
		C9,301.3-3.9,320.4,1.2,341.3C1.1,333.3,3.3,311.3,26.8,291.1z"/>
	<linearGradient id="SVGID_7_" gradientUnits="userSpaceOnUse" x1="92.205" y1="91.0274" x2="288.8474" y2="91.0274">
		<stop  offset="0" style="stop-color:#FFAA2D;stop-opacity:0.5"/>
		<stop  offset="1" style="stop-color:#FFDA73"/>
	</linearGradient>
	<path class="st7" d="M288.8,2.6c-14.9-2.1-29.8-3-44.5-2.4c-23.6,11.2-69,31.3-69,31.3l-80,89L92.2,171l55,11l11.7-18.8l-7.4-4.9
		c-10.4,21.8-50.1,7.1-43.1-18.6C115.3,114.6,177.6,15.5,288.8,2.6z"/>
	<path class="st6" d="M150,323.7c1.5,0.9,3,1.8,4.5,2.6c0,0,0.1,0,0.1,0.1c0,0,0,0,0,0c0,0-22.7-188.8,110.5-258.7
		c97.6-51.9,144.6-14.5,150.6-9.1c-2.1-2.1-4.2-4.1-6.4-6.1c-0.2-0.2-0.4-0.4-0.6-0.5c-2-1.7-4-3.4-6.1-5c-0.4-0.3-0.8-0.7-1.3-1
		c-1.9-1.5-3.9-2.8-5.9-4.2c-0.5-0.4-1.1-0.8-1.6-1.1c-2.5-1.6-5.1-3.2-7.8-4.6c-9.5-5.2-19.6-9.9-30.1-14.2
		c-25.2-3.2-59.7-0.4-102.6,18.8c-70.6,33.6-100.8,88.4-113,113.9c-10.4,21.8-50.1,7.1-43.1-18.6C104.5,110,171.6,8.8,272.4,1
		C219-3.8,165.7,8.3,129.1,49C65,120.2,57.9,158.4,49.5,258.7c-0.6,7.1,0.6,25.2,18.1,30.4c17.5,5.2,52.4,18.1,75.1,30.4
		c2,1.1,3.8,2.1,5.6,3.2C148.9,323.1,149.5,323.4,150,323.7z"/>
	<linearGradient id="SVGID_8_" gradientUnits="userSpaceOnUse" x1="313.0518" y1="-24.5322" x2="105.8717" y2="349.6863">
		<stop  offset="0" style="stop-color:#FFD03A"/>
		<stop  offset="3.830154e-02" style="stop-color:#FFD13F"/>
		<stop  offset="8.440465e-02" style="stop-color:#FFD34E"/>
		<stop  offset="0.1343" style="stop-color:#FFD866"/>
		<stop  offset="0.1562" style="stop-color:#FFDA73"/>
		<stop  offset="0.2507" style="stop-color:#FFDA73"/>
		<stop  offset="0.262" style="stop-color:#FFDA73"/>
		<stop  offset="0.3047" style="stop-color:#FFD970"/>
		<stop  offset="0.3366" style="stop-color:#FFD866"/>
		<stop  offset="0.3649" style="stop-color:#FFD556"/>
		<stop  offset="0.3911" style="stop-color:#FFD140"/>
		<stop  offset="0.3966" style="stop-color:#FFD03A"/>
		<stop  offset="0.6206" style="stop-color:#FFCD39;stop-opacity:0.8144"/>
		<stop  offset="0.788" style="stop-color:#FFC336;stop-opacity:0.6757"/>
		<stop  offset="0.9365" style="stop-color:#FFB330;stop-opacity:0.5526"/>
		<stop  offset="1" style="stop-color:#FFAA2D;stop-opacity:0.5"/>
	</linearGradient>
	<path class="st8" d="M153.2,323.7c1.5,0.9,3,1.8,4.5,2.6c0,0,0.1,0,0.1,0.1c0,0,0,0,0,0c0,0-22.7-188.8,110.5-258.7
		C366,15.9,413,53.3,419,58.7c-2.1-2.1-4.2-4.1-6.4-6.1c-0.2-0.2-0.4-0.4-0.6-0.5c-2-1.7-4-3.4-6.1-5c-0.4-0.3-0.8-0.7-1.3-1
		c-1.9-1.5-3.9-2.8-5.9-4.2c-0.5-0.4-1.1-0.8-1.6-1.1c-2.5-1.6-5.1-3.2-7.8-4.6c-9.5-5.2-19.6-9.9-30.1-14.2
		c-25.2-3.2-59.7-0.4-102.6,18.8c-70.6,33.6-100.8,88.4-113,113.9c-10.4,21.8-50.1,7.1-43.1-18.6C107.7,110,174.8,8.8,275.7,1
		C222.2-3.8,168.9,8.3,132.3,49c-64.1,71.2-71.2,109.4-79.6,209.8c-0.6,7.1,0.6,25.2,18.1,30.4c17.5,5.2,52.4,18.1,75.1,30.4
		c2,1.1,3.8,2.1,5.6,3.2C152.1,323.1,152.7,323.4,153.2,323.7z"/>
	<linearGradient id="SVGID_9_" gradientUnits="userSpaceOnUse" x1="59.7067" y1="148.4235" x2="194.3275" y2="148.4235">
		<stop  offset="0" style="stop-color:#FFAA2D;stop-opacity:0.3"/>
		<stop  offset="1" style="stop-color:#FFDA73"/>
	</linearGradient>
	<path class="st9" d="M194.3,9c-23.3,7.7-44.5,20.5-62,39.9c-12.5,13.9-22.8,26.6-31.5,38.7c-52.6,76.3-39.8,196.2-39.8,197
		c1.4,1.2,2.5,2.2,5.2,3.2C52.6,124.7,127,41,194.3,9z"/>
	<linearGradient id="SVGID_10_" gradientUnits="userSpaceOnUse" x1="35.0307" y1="318.0608" x2="30.8212" y2="313.5268">
		<stop  offset="0" style="stop-color:#FFAA2D"/>
		<stop  offset="1" style="stop-color:#FFDA73;stop-opacity:0.3"/>
	</linearGradient>
	<path class="st10" d="M1.4,342.1c0.5,1.9,1.1,3.8,1.9,5.7l63-60l-5.2-3.2L1.4,342.1z"/>
	<linearGradient id="SVGID_11_" gradientUnits="userSpaceOnUse" x1="126.6621" y1="370.4675" x2="121.6855" y2="365.9765">
		<stop  offset="0" style="stop-color:#FFAA2D"/>
		<stop  offset="1" style="stop-color:#FFDA73;stop-opacity:0.3"/>
	</linearGradient>
	<path class="st11" d="M90.1,408.9l75.2-78.2l-7.4-4.2L84,406.6C86,407.4,88.1,408.1,90.1,408.9z"/>
	<g>
		<linearGradient id="SVGID_12_" gradientUnits="userSpaceOnUse" x1="148.2062" y1="342.3215" x2="212.345" y2="60.1161">
			<stop  offset="0" style="stop-color:#FFDA73;stop-opacity:0.5"/>
			<stop  offset="1" style="stop-color:#FFAA2D;stop-opacity:0.5"/>
		</linearGradient>
		<path class="st12" d="M151.8,322.9c0.5,0.3,1,0.6,1.5,0.8c0,0,0,0,0,0C152.8,323.5,152.3,323.2,151.8,322.9z"/>
		<linearGradient id="SVGID_13_" gradientUnits="userSpaceOnUse" x1="153.4538" y1="343.5352" x2="217.6089" y2="61.258">
			<stop  offset="0" style="stop-color:#FFDA73;stop-opacity:0.5"/>
			<stop  offset="1" style="stop-color:#FFAA2D;stop-opacity:0.5"/>
		</linearGradient>
		<path class="st13" d="M157,325.9c0.3,0.2,0.6,0.3,0.8,0.5c0,0,0,0-0.1,0C157.5,326.2,157.2,326.1,157,325.9z"/>
		<linearGradient id="SVGID_14_" gradientUnits="userSpaceOnUse" x1="243.6656" y1="364.2047" x2="308.4105" y2="79.3327">
			<stop  offset="0" style="stop-color:#FFDA73;stop-opacity:0.5"/>
			<stop  offset="1" style="stop-color:#FFAA2D;stop-opacity:0.5"/>
		</linearGradient>
		<path class="st14" d="M424.5,64.5c-3.8-4.4-7.9-8.5-12.3-12.4c0.1,0.1,0.3,0.2,0.4,0.4c2.2,2,4.3,4,6.4,6.1
			c-6-5.4-53-42.8-150.6,9.1c-133.3,69.9-110.5,258.7-110.5,258.7c2.5,1.5,4.9,2.9,7.4,4.2c-2.3-26.2-11.6-190.9,110.9-255.1
			C365.9,27.9,412.8,55.6,424.5,64.5z"/>
		<linearGradient id="SVGID_15_" gradientUnits="userSpaceOnUse" x1="316.1752" y1="380.8398" x2="380.948" y2="95.8448">
			<stop  offset="0" style="stop-color:#FFDA73;stop-opacity:0.5"/>
			<stop  offset="1" style="stop-color:#FFAA2D;stop-opacity:0.5"/>
		</linearGradient>
		<path class="st15" d="M390.8,36.8L390.8,36.8c2.1,1.2,4.3,2.5,6.4,3.8C395,39.3,392.9,38,390.8,36.8z"/>
		<linearGradient id="SVGID_16_" gradientUnits="userSpaceOnUse" x1="324.0851" y1="382.6972" x2="388.8688" y2="97.6544">
			<stop  offset="0" style="stop-color:#FFDA73;stop-opacity:0.5"/>
			<stop  offset="1" style="stop-color:#FFAA2D;stop-opacity:0.5"/>
		</linearGradient>
		<path class="st16" d="M404.7,46c-2.3-1.7-4.6-3.4-7-4.9c0.3,0.2,0.7,0.5,1.1,0.7C400.8,43.1,402.7,44.5,404.7,46z"/>
		<linearGradient id="SVGID_17_" gradientUnits="userSpaceOnUse" x1="332.7895" y1="384.6525" x2="397.5696" y2="99.6256">
			<stop  offset="0" style="stop-color:#FFDA73;stop-opacity:0.5"/>
			<stop  offset="1" style="stop-color:#FFAA2D;stop-opacity:0.5"/>
		</linearGradient>
		<path class="st17" d="M406,47c2.1,1.6,4.1,3.3,6,5C410,50.3,408,48.6,406,47z"/>
	</g>
	<linearGradient id="SVGID_18_" gradientUnits="userSpaceOnUse" x1="210.6847" y1="326.707" x2="281.2547" y2="317.6425">
		<stop  offset="0" style="stop-color:#FFDA73"/>
		<stop  offset="1.927052e-02" style="stop-color:#FFD266"/>
		<stop  offset="6.918748e-02" style="stop-color:#FEC049"/>
		<stop  offset="0.1225" style="stop-color:#FDB232"/>
		<stop  offset="0.1803" style="stop-color:#FCA822"/>
		<stop  offset="0.2455" style="stop-color:#FCA219"/>
		<stop  offset="0.3341" style="stop-color:#FCA016"/>
		<stop  offset="0.6348" style="stop-color:#FCA119"/>
		<stop  offset="0.8591" style="stop-color:#FEA523"/>
		<stop  offset="1" style="stop-color:#FFAA2D"/>
	</linearGradient>
	<path class="st18" d="M206.1,320.6c-1.7-11.3-4.2-18.1,10.7-18.8c14.9-0.6,38.5-2.9,47.9-4.2c9.4-1.3,16.8-3.9,19.1,6.8
		c2.3,10.7,3.9,20.7,4.9,24.9c1,4.2,3.6,11.3-11.3,12.9c-14.9,1.6-46.3,5.5-53.4,6.5c-7.1,1-13.6,1.6-14.6-6.5
		C208.4,334.2,207.1,327.2,206.1,320.6z"/>
	<linearGradient id="SVGID_19_" gradientUnits="userSpaceOnUse" x1="289.3083" y1="291.8809" x2="232.981" y2="341.4101">
		<stop  offset="0" style="stop-color:#FFDA73"/>
		<stop  offset="0.2175" style="stop-color:#FFD76E"/>
		<stop  offset="0.4794" style="stop-color:#FFCC5F"/>
		<stop  offset="0.7628" style="stop-color:#FFBC47"/>
		<stop  offset="1" style="stop-color:#FFAA2D"/>
	</linearGradient>
	<path class="st19" d="M284.3,340.7c-1.1-6.1-3.8-21.4-5.4-27.9c-1.9-8.1-4.5-5.2-12.3-4.9c-7.8,0.3-30.7,3.9-43.7,4.2
		c-12.9,0.3-11.7,4.2-11,10.7c0.5,5.1,1,19.6,1.2,25.6c2.8,1.3,6.6,0.9,10.8,0.3c7.1-1,38.5-4.9,53.4-6.5
		C280.3,342,282.6,341.5,284.3,340.7z"/>
	<linearGradient id="SVGID_20_" gradientUnits="userSpaceOnUse" x1="356.9943" y1="330.3762" x2="495.3819" y2="164.3113">
		<stop  offset="0" style="stop-color:#FCA016"/>
		<stop  offset="0.1057" style="stop-color:#FCA823"/>
		<stop  offset="0.5053" style="stop-color:#FEC34E"/>
		<stop  offset="0.8168" style="stop-color:#FFD469"/>
		<stop  offset="1" style="stop-color:#FFDA73"/>
	</linearGradient>
	<path class="st20" d="M349.6,299c-0.6-9.1-4.9-16.8,11.3-22.3c16.2-5.5,52.1-22.3,68-32.4c15.9-10,22.3-15.9,26.5-13.6
		c4.2,2.3,5.2,5.5,5.8,10c0.6,4.5,1.6,12,1.9,15.2c0.3,3.2-1,7.1-41.4,27.5c-40.5,20.4-57,29.1-61.5,31.4c-4.5,2.3-8.7,2.3-9.4-3.6
		C350.3,305.4,349.6,299,349.6,299z"/>
	<linearGradient id="SVGID_21_" gradientUnits="userSpaceOnUse" x1="416.7781" y1="228.5001" x2="408.0381" y2="298.4201">
		<stop  offset="0" style="stop-color:#FFDA73"/>
		<stop  offset="0.2175" style="stop-color:#FFD76E"/>
		<stop  offset="0.4794" style="stop-color:#FFCC5F"/>
		<stop  offset="0.7628" style="stop-color:#FFBC47"/>
		<stop  offset="1" style="stop-color:#FFAA2D"/>
	</linearGradient>
	<path class="st21" d="M421.8,283.4c40.5-20.4,41.8-24.3,41.4-27.5c-0.3-3.2-1.3-10.7-1.9-15.2c-0.4-2.5-0.8-4.6-1.9-6.3
		c-50.2,34.3-82,45-91.4,48.1c-9.7,3.2-9.7,6.8-8.7,14.9c0.6,5.3,1.6,12.5,2.1,16.9C367.2,311.3,384.1,302.4,421.8,283.4z"/>
	<path class="st22" d="M390.3,331.9c-0.6,2.5-2.8,4-5,3.5c-2.2-0.5-3.6-2.9-3-5.4c0.6-2.5,2.8-4,5-3.5
		C389.5,327,390.9,329.4,390.3,331.9z"/>
	<path class="st23" d="M385.2,326.7c-1.4,0.5-2.5,1.7-2.9,3.3c-0.3,1.2-0.1,2.3,0.4,3.3c1.4-0.5,2.5-1.7,2.9-3.3
		C385.8,328.8,385.6,327.7,385.2,326.7z"/>
	<linearGradient id="SVGID_22_" gradientUnits="userSpaceOnUse" x1="331.5605" y1="87.6052" x2="376.6498" y2="192.8136">
		<stop  offset="0" style="stop-color:#FFE59C"/>
		<stop  offset="1" style="stop-color:#FFD03A;stop-opacity:0"/>
	</linearGradient>
	<path class="st24" d="M422.6,136.1c-2.1-7.2-5.6-13.8-9.6-20.2c-9.5-15.3-20.1-30.4-32.5-43.4c-8-8.4-16.8-16.1-25.9-23.3
		c-21.2,2.3-47.2,9.7-78.4,26.3c-5.7,3-11.1,6.3-16.3,9.7c1.1,0.6,34.9,18.7,50.2,56c15.5,37.9,19.4,53.8,50.5,44.4
		c12-3.7,24.4-5.8,36.5-9.2c9.8-2.8,27.2-4,29.1-17C427.2,152.5,424.5,142.7,422.6,136.1z"/>
</g>
</svg>
